<?xml version="1.0" standalone="no"?>
<!DOCTYPE svg PUBLIC "-//W3C//DTD SVG 20010904//EN"
 "http://www.w3.org/TR/2001/REC-SVG-20010904/DTD/svg10.dtd">
<svg version="1.0" xmlns="http://www.w3.org/2000/svg"
 width="439.000000pt" height="438.000000pt" viewBox="0 0 439.000000 438.000000"
 preserveAspectRatio="xMidYMid meet">

<g transform="translate(0.000000,438.000000) scale(0.100000,-0.100000)"
fill="#000000" stroke="none">
<path d="M1970 4349 c-751 -77 -1418 -548 -1751 -1234 -405 -837 -236 -1815
429 -2482 299 -299 667 -501 1093 -599 105 -24 137 -27 394 -31 249 -4 294 -2
405 16 543 88 1062 407 1395 856 239 322 383 690 426 1090 14 134 6 412 -16
545 -78 472 -303 897 -658 1239 -454 439 -1096 663 -1717 600z m1210 -1257
c19 -7 42 -16 50 -22 12 -8 -85 -109 -480 -504 -440 -440 -499 -495 -533 -502
-89 -16 -83 -21 -605 499 -265 265 -482 488 -482 495 0 17 43 32 120 42 110
13 1889 6 1930 -8z m178 -928 c-2 -392 -7 -716 -11 -720 -4 -5 -174 158 -377
361 l-370 370 372 372 c329 330 374 370 381 351 4 -11 6 -342 5 -734z m-1965
378 l367 -367 -370 -370 c-282 -282 -373 -367 -379 -356 -18 28 -23 227 -19
821 3 552 7 640 27 640 3 0 171 -165 374 -368z m676 -624 c34 -17 63 -23 111
-23 84 1 137 25 217 98 33 32 66 57 71 57 19 0 764 -751 758 -765 -12 -32
-132 -36 -1086 -33 -764 2 -951 6 -977 16 -18 8 -33 17 -33 20 0 4 172 179
382 389 l381 382 65 -59 c35 -33 85 -69 111 -82z"/>
</g>
</svg>
